<svg width="16" height="16" viewBox="0 0 16 16" fill="none" xmlns="http://www.w3.org/2000/svg">
<path fill-rule="evenodd" clip-rule="evenodd" d="M11.4918 7.686C11.6638 7.823 11.6928 8.075 11.5578 8.248C11.4947 8.32905 11.4025 8.38233 11.3008 8.39651C11.199 8.4107 11.0957 8.38469 11.0128 8.324L9.66285 7.336L9.69585 7.145L9.75885 6.777L9.77485 6.682L9.78585 6.529L9.80185 6.335L9.81585 6.169L11.4918 7.686ZM10.3398 10.233L11.2278 13.389C11.2628 13.511 11.248 13.6419 11.1867 13.753C11.1255 13.8641 11.0227 13.9465 10.9008 13.982C10.785 14.0143 10.6611 14.0016 10.5542 13.9463C10.4474 13.891 10.3654 13.7973 10.3248 13.684L9.26385 10.742L7.47885 8.937C7.40019 8.85631 7.34227 8.75775 7.31005 8.64977C7.27783 8.54179 7.27227 8.4276 7.29385 8.317L7.67485 6.123L6.81685 6.38L6.06185 8.156C6.04185 8.20424 6.01248 8.24804 5.97545 8.28486C5.93841 8.32168 5.89444 8.35079 5.84608 8.3705C5.79773 8.39022 5.74594 8.40015 5.69372 8.39972C5.64149 8.39929 5.58988 8.38851 5.54185 8.368C5.44715 8.32708 5.3718 8.25131 5.33141 8.15637C5.29102 8.06144 5.28867 7.95462 5.32485 7.858L6.08785 5.853C6.12345 5.75754 6.19333 5.67875 6.28385 5.632L6.33185 5.607L8.24085 4.622L8.26285 4.612C8.37892 4.54909 8.51329 4.52858 8.64285 4.554C8.81385 4.587 8.96185 4.686 9.03385 4.836C9.10685 4.987 9.13185 5.264 9.13185 5.264C9.17385 5.511 9.17585 5.752 9.19685 5.995C9.21185 6.238 9.21085 6.478 9.20585 6.718C9.19285 7.197 9.16185 7.673 9.09885 8.145L9.06385 8.424L10.2268 10.028L10.2708 10.088C10.3027 10.1317 10.3255 10.1808 10.3398 10.233ZM10.0568 3C10.0568 3.552 9.61385 4 9.06685 4C8.93601 3.99961 8.80654 3.97342 8.68584 3.92292C8.56514 3.87243 8.45559 3.79863 8.36344 3.70574C8.2713 3.61286 8.19838 3.50271 8.14886 3.38161C8.09934 3.26051 8.07419 3.13083 8.07485 3C8.07485 2.448 8.51885 2 9.06585 2C9.61385 2 10.0568 2.448 10.0568 3ZM7.73385 10.005C7.96985 10.223 8.21085 10.432 8.42185 10.602L8.18185 11.109L6.57185 13.77C6.5397 13.8238 6.4972 13.8706 6.44681 13.9078C6.39641 13.945 6.33914 13.9718 6.27829 13.9867C6.21745 14.0016 6.15426 14.0042 6.09238 13.9945C6.03051 13.9848 5.97118 13.9628 5.91785 13.93C5.81569 13.8659 5.74107 13.7661 5.70853 13.65C5.67599 13.5339 5.68787 13.4098 5.74185 13.302L7.08385 10.641C7.10585 10.429 7.12385 10.217 7.15185 10.006L7.22185 9.516L7.30685 9.599C7.43885 9.733 7.58685 9.869 7.73385 10.005Z" fill="currentColor"/>
</svg>
