<svg width="20" height="20" viewBox="0 0 20 20" fill="none" xmlns="http://www.w3.org/2000/svg">
<path fill-rule="evenodd" clip-rule="evenodd" d="M10.0471 17.4174L6.56181 13.8445C6.14088 13.5046 6.18711 13.1829 6.56638 12.8757L11.7721 7.53803C13.3149 5.11652 10.7461 2.96801 8.792 4.53246L2.34961 11.1239C1.88608 11.5105 1.86375 11.9456 2.40154 12.4422L9.59956 19.8351C10.2807 20.1862 10.7544 19.9696 11.3013 19.2521L19.8128 10.5421C20.4421 9.6602 19.3418 8.71714 18.6275 9.39527L10.8037 17.4171C10.5515 17.7507 10.2993 17.7402 10.0471 17.4174Z" fill="#232323"/>
<path fill-rule="evenodd" clip-rule="evenodd" d="M9.95287 2.58243L13.4381 6.1553C13.8592 6.49517 13.8128 6.81681 13.434 7.12404L8.22797 12.4616C6.68504 14.8835 9.25391 17.032 11.2079 15.4676L17.6504 8.87581C18.1139 8.48935 18.1363 8.05425 17.5985 7.55798L10.4005 0.16516C9.71926 -0.186377 9.24553 0.0302816 8.6987 0.748106L0.187176 9.4576C-0.442005 10.3399 0.65829 11.2825 1.37244 10.6048L9.19633 2.58282C9.44849 2.24915 9.70074 2.26 9.9529 2.58243H9.95287Z" fill="#232323"/>
</svg>
