<svg width="40" height="40" viewBox="0 0 40 40" fill="none" xmlns="http://www.w3.org/2000/svg">
<g id="Frame" clip-path="url(#clip0_170_5901)">
<g id="Group">
<path id="Vector" d="M29.1667 18.3983C26.2946 18.4019 23.5411 19.5444 21.5102 21.5752C19.4794 23.6061 18.3369 26.3596 18.3333 29.2317C18.3333 35.17 23.1933 40 29.1667 40C35.14 40 40 35.14 40 29.1667C40 23.2283 35.14 18.3983 29.1667 18.3983ZM29.1667 38.3333C24.1133 38.3333 20 34.25 20 29.2317C20 24.1767 24.1133 20.065 29.1667 20.065C34.22 20.065 38.3333 24.1483 38.3333 29.1667C38.3333 34.2217 34.22 38.3333 29.1667 38.3333ZM31.4233 30.2433C31.5796 30.3998 31.6673 30.612 31.6671 30.8331C31.667 31.0542 31.579 31.2662 31.4225 31.4225C31.266 31.5788 31.0539 31.6665 30.8327 31.6663C30.6116 31.6661 30.3996 31.5781 30.2433 31.4217L28.5767 29.755C28.4993 29.6775 28.438 29.5855 28.3963 29.4842C28.3545 29.383 28.3331 29.2745 28.3333 29.165V25.8317C28.3333 25.6107 28.4211 25.3987 28.5774 25.2424C28.7337 25.0861 28.9457 24.9983 29.1667 24.9983C29.3877 24.9983 29.5996 25.0861 29.7559 25.2424C29.9122 25.3987 30 25.6107 30 25.8317V28.82L31.4233 30.2433ZM32.5 3.33333H30V0.833333C30 0.61232 29.9122 0.400358 29.7559 0.244078C29.5996 0.0877974 29.3877 0 29.1667 0C28.9457 0 28.7337 0.0877974 28.5774 0.244078C28.4211 0.400358 28.3333 0.61232 28.3333 0.833333V3.33333H11.6667V0.833333C11.6667 0.61232 11.5789 0.400358 11.4226 0.244078C11.2663 0.0877974 11.0543 0 10.8333 0C10.6123 0 10.4004 0.0877974 10.2441 0.244078C10.0878 0.400358 10 0.61232 10 0.833333V3.33333H7.5C5.51155 3.33554 3.60518 4.12642 2.19914 5.53247C0.79309 6.93851 0.00220571 8.84489 0 10.8333L0 32.5C0 36.635 3.365 40 7.5 40H17.5C17.721 40 17.933 39.9122 18.0893 39.7559C18.2455 39.5996 18.3333 39.3877 18.3333 39.1667C18.3333 38.9457 18.2455 38.7337 18.0893 38.5774C17.933 38.4211 17.721 38.3333 17.5 38.3333H7.5C4.28333 38.3333 1.66667 35.7167 1.66667 32.5V15H38.3333V17.5C38.3333 17.721 38.4211 17.933 38.5774 18.0893C38.7337 18.2455 38.9457 18.3333 39.1667 18.3333C39.3877 18.3333 39.5996 18.2455 39.7559 18.0893C39.9122 17.933 40 17.721 40 17.5V10.8333C40 6.69833 36.635 3.33333 32.5 3.33333ZM1.66667 13.3333V10.8333C1.66667 7.61667 4.28333 5 7.5 5H32.5C35.7167 5 38.3333 7.61667 38.3333 10.8333V13.3333H1.66667Z" fill="white"/>
</g>
</g>
<defs>
<clipPath id="clip0_170_5901">
<rect width="40" height="40" fill="white"/>
</clipPath>
</defs>
</svg>
