<svg width="40" height="40" viewBox="0 0 40 40" fill="none" xmlns="http://www.w3.org/2000/svg">
<g id="Frame" clip-path="url(#clip0_170_5907)">
<g id="Group">
<path id="Vector" d="M20.8333 40C20.745 40.0317 21.0583 40 20.8333 40V40ZM20.8333 40C8.33333 40 0 31.0283 0 20C0 8.97167 8.97167 0 20 0C31.0283 0 40 8.97167 40 20C40 31.6667 30.8333 40 20.8333 40ZM27.3833 6.66667H25.8333C24.455 6.66667 23.3333 7.78833 23.3333 9.16667V10.8333C23.3333 12.2117 22.2117 13.3333 20.8333 13.3333C19.455 13.3333 18.3333 14.455 18.3333 15.8333V17.5C18.3333 18.8783 19.455 20 20.8333 20H25.8333C28.1317 20 30 21.8683 30 24.1667V25C30 25.1767 30.0917 29.2933 34.2067 31.5683C36.8782 28.3052 38.3365 24.2172 38.3333 20C38.3333 13.8483 35.2783 8.40833 30.6167 5.08167C30.232 5.57238 29.7413 5.96982 29.1814 6.24428C28.6215 6.51874 28.0069 6.66313 27.3833 6.66667ZM20 29.1667C20 27.7883 18.8783 26.6667 17.5 26.6667H12.07C10.5239 26.6617 9.04192 26.048 7.945 24.9583L1.73 18.7433C1.70167 19.16 1.66667 19.5767 1.66667 20.0017C1.66667 30.11 9.89167 38.335 20 38.335V29.1667ZM33.0667 32.8367C28.4 30.0433 28.3333 25.2133 28.3333 25V24.1667C28.3333 22.7883 27.2117 21.6667 25.8333 21.6667H20.8333C19.7287 21.6653 18.6696 21.2259 17.8885 20.4448C17.1074 19.6637 16.668 18.6047 16.6667 17.5V15.8333C16.6667 13.5367 18.535 11.6667 20.8333 11.6667C21.0543 11.6667 21.2663 11.5789 21.4226 11.4226C21.5789 11.2663 21.6667 11.0543 21.6667 10.8333V9.16667C21.6667 6.87 23.535 5 25.8333 5H27.3833C28.0917 5 28.745 4.69 29.215 4.175C26.422 2.53357 23.2413 1.66764 20.0017 1.66667C11.0383 1.66667 3.57167 8.13333 1.98833 16.6433L9.12333 23.7783C9.90633 24.5575 10.9654 24.996 12.07 24.9983H17.5C19.7983 24.9983 21.6667 26.8667 21.6667 29.165V38.2467C25.9887 37.8536 30.0298 35.9369 33.0667 32.8367Z" fill="white"/>
</g>
</g>
<defs>
<clipPath id="clip0_170_5907">
<rect width="40" height="40" fill="white"/>
</clipPath>
</defs>
</svg>
