<svg width="40" height="40" viewBox="0 0 40 40" fill="none" xmlns="http://www.w3.org/2000/svg">
<g id="Frame" clip-path="url(#clip0_170_5904)">
<g id="Group">
<path id="Vector" d="M19.9998 39.9998C18.735 40.0008 17.4854 39.7246 16.3388 39.1908C15.1922 38.6569 14.1765 37.8784 13.3631 36.9098C13.2881 36.8184 13.1916 36.747 13.0823 36.7019C12.9729 36.6568 12.8541 36.6395 12.7365 36.6515C11.4766 36.7579 10.2087 36.5886 9.02083 36.1555C7.83299 35.7223 6.75375 35.0356 5.85813 34.1432C4.96289 33.2496 4.27437 32.1706 3.841 30.9822C3.40764 29.7939 3.23997 28.525 3.3498 27.2648C3.36151 27.1474 3.34405 27.029 3.29899 26.92C3.25392 26.8109 3.18264 26.7147 3.09146 26.6398C1.12646 24.9848 0.00146484 22.5648 0.00146484 20.0015C0.00146484 17.4382 1.12813 15.0182 3.09146 13.3648C3.18319 13.29 3.25495 13.1936 3.30032 13.0842C3.34569 12.9749 3.36326 12.856 3.35146 12.7382C3.24164 11.478 3.40931 10.2091 3.84267 9.02078C4.27603 7.83241 4.96456 6.75346 5.8598 5.85984C6.7522 4.96291 7.83098 4.27326 9.01967 3.83978C10.2083 3.4063 11.4778 3.23961 12.7381 3.35151C12.8558 3.3635 12.9746 3.34619 13.0839 3.30111C13.1933 3.25604 13.2898 3.1846 13.3648 3.09317C15.0181 1.12817 17.4365 0.00317383 20.0015 0.00317383C22.5665 0.00317383 24.9848 1.12984 26.6381 3.09317C26.7981 3.28151 27.0048 3.36984 27.2648 3.35151C28.5247 3.24454 29.7928 3.41354 30.9807 3.84674C32.1686 4.27994 33.2478 4.96693 34.1431 5.85984C35.0384 6.75346 35.7269 7.83241 36.1603 9.02078C36.5936 10.2091 36.7613 11.478 36.6515 12.7382C36.6398 12.8556 36.6572 12.974 36.7023 13.0831C36.7473 13.1921 36.8186 13.2883 36.9098 13.3632C38.8748 15.0182 39.9998 17.4382 39.9998 20.0015C39.9998 22.5648 38.8731 24.9848 36.9098 26.6382C36.8181 26.713 36.7463 26.8094 36.7009 26.9188C36.6556 27.0281 36.638 27.147 36.6498 27.2648C36.7596 28.525 36.592 29.7939 36.1586 30.9822C35.7252 32.1706 35.0367 33.2496 34.1415 34.1432C33.2499 35.0412 32.1712 35.7316 30.9823 36.1652C29.7934 36.5988 28.5235 36.7648 27.2631 36.6515C27.1456 36.6411 27.0273 36.6592 26.9182 36.7041C26.8092 36.7491 26.7125 36.8196 26.6365 36.9098C25.8233 37.8786 24.8076 38.6574 23.661 39.1912C22.5144 39.7251 21.2646 40.0011 19.9998 39.9998ZM12.8098 34.9798C13.5181 34.9798 14.1748 35.2848 14.6398 35.8365C15.9748 37.4232 17.9298 38.3332 20.0015 38.3332C22.0731 38.3332 24.0281 37.4232 25.3631 35.8365C25.8731 35.2298 26.6248 34.9198 27.4098 34.9898C29.4781 35.1648 31.5015 34.4282 32.9665 32.9632C34.4315 31.4982 35.1698 29.4732 34.9931 27.4048C34.9265 26.6148 35.2348 25.8715 35.8415 25.3615C37.4265 24.0248 38.3365 22.0698 38.3365 19.9998C38.3365 17.9298 37.4265 15.9732 35.8398 14.6365C35.5435 14.3902 35.3116 14.0754 35.1641 13.7194C35.0166 13.3634 34.9579 12.9769 34.9931 12.5932C35.0816 11.5749 34.946 10.5496 34.5959 9.58937C34.2458 8.62912 33.6896 7.75718 32.9665 7.03484C32.2436 6.31287 31.3719 5.75746 30.4121 5.4074C29.4523 5.05735 28.4277 4.9211 27.4098 5.00817C27.0254 5.04586 26.6376 4.98833 26.2806 4.84067C25.9237 4.69301 25.6086 4.45976 25.3631 4.16151C24.0281 2.57484 22.0731 1.66484 20.0015 1.66484C17.9298 1.66484 15.9748 2.57484 14.6398 4.16151C14.3927 4.45774 14.0773 4.68956 13.7208 4.83703C13.3643 4.98451 12.9773 5.04324 12.5931 5.00817C11.5751 4.91892 10.5498 5.05415 9.5897 5.40433C8.62959 5.75451 7.75801 6.3111 7.03647 7.03484C6.31334 7.75718 5.75717 8.62912 5.40705 9.58937C5.05692 10.5496 4.92133 11.5749 5.0098 12.5932C5.07647 13.3832 4.76813 14.1265 4.16146 14.6365C2.57646 15.9732 1.66646 17.9282 1.66646 19.9982C1.66646 22.0682 2.57646 24.0248 4.16313 25.3615C4.76813 25.8698 5.07647 26.6148 5.0098 27.4048C4.92133 28.4231 5.05692 29.4484 5.40705 30.4086C5.75717 31.3689 6.31334 32.2408 7.03647 32.9632C7.75962 33.6847 8.63142 34.2398 9.59111 34.5898C10.5508 34.9398 11.5753 35.0763 12.5931 34.9898C12.6652 34.9832 12.7375 34.9799 12.8098 34.9798ZM20.7565 23.7898L28.6548 16.1765C28.8046 16.0213 28.8884 15.8141 28.8886 15.5984C28.8887 15.3826 28.8052 15.1753 28.6556 15.0199C28.506 14.8644 28.302 14.7731 28.0865 14.765C27.8709 14.7569 27.6606 14.8327 27.4998 14.9765L19.5898 22.5998C19.3551 22.8324 19.0768 23.0163 18.7708 23.141C18.4649 23.2658 18.1374 23.329 17.807 23.327C17.4766 23.325 17.1498 23.2578 16.8454 23.1293C16.5411 23.0008 16.265 22.8135 16.0331 22.5782L12.2365 19.0498C12.0716 18.918 11.863 18.8533 11.6525 18.8687C11.442 18.8842 11.2451 18.9787 11.1013 19.1332C10.9575 19.2878 10.8774 19.491 10.8771 19.7021C10.8769 19.9132 10.9564 20.1166 11.0998 20.2715L14.8765 23.7782C15.6898 24.5915 16.7598 24.9982 17.8265 24.9982C18.8931 24.9982 19.9515 24.5948 20.7581 23.7882L20.7565 23.7898Z" fill="white"/>
</g>
</g>
<defs>
<clipPath id="clip0_170_5904">
<rect width="40" height="40" fill="white"/>
</clipPath>
</defs>
</svg>
