<svg width="360" height="79" viewBox="0 0 360 79" fill="none" xmlns="http://www.w3.org/2000/svg">
<path d="M0 78.7794C1.66992 78.0219 3.30962 77.1844 5.02109 76.5372C5.92784 76.1946 6.2112 75.7682 6.2112 74.7937C6.17719 61.2108 6.18853 47.6279 6.18853 34.045V32.8002C9.54726 31.4411 12.872 30.0821 16.2118 28.7687C16.5292 28.6431 16.9863 28.6964 17.3188 28.8258C18.9321 29.4539 20.5264 30.1354 22.2492 30.8472V20.3974C24.7201 19.3924 27.1192 18.4102 29.5221 17.4357C30.7575 16.937 32.0534 16.5487 33.2284 15.932C34.6527 15.182 35.9033 15.201 37.3541 15.932C39.0353 16.7809 40.8601 17.3481 42.7454 18.0828C42.7454 17.607 42.7454 17.2415 42.7454 16.8761C42.7454 13.8915 42.753 10.9069 42.7379 7.92232C42.7379 7.31703 42.8739 6.95157 43.5199 6.69651C48.9491 4.55705 54.3706 2.40237 59.7582 0.15632C60.6763 -0.224366 61.3337 0.133479 62.0402 0.415187C67.3446 2.50515 72.6415 4.62177 77.9195 6.77645C78.1916 6.88685 78.4333 7.44265 78.4371 7.79289C78.4749 11.2229 78.4598 14.649 78.4598 18.2351C80.8816 17.2606 83.2126 16.305 85.5664 15.4066C85.9518 15.2581 86.4958 15.2505 86.8774 15.4028C90.7537 16.9408 94.5961 18.5587 98.4837 20.0586C99.1902 20.3289 99.3074 20.6449 99.3036 21.2882C99.2809 24.2043 99.2922 27.1203 99.296 30.0326C99.296 30.2648 99.3262 30.497 99.3451 30.7978C100.664 30.2724 101.99 29.8879 103.169 29.2369C104.385 28.5669 105.428 28.7116 106.622 29.2217C109.289 30.36 111.99 31.4183 114.696 32.4652C115.391 32.7354 115.436 33.2075 115.436 33.828C115.425 47.5479 115.436 61.2679 115.406 74.9878C115.406 75.8862 115.602 76.3392 116.501 76.6743C118.107 77.2719 119.641 78.0714 121.133 78.9736C118.916 78.1856 116.69 77.4242 114.488 76.5981C106.966 73.781 99.4434 70.9602 91.9363 68.1088C85.6117 65.7029 79.2985 63.2703 72.9929 60.8111C69.2639 59.3568 65.5349 57.9026 61.8664 56.3075C60.6725 55.786 59.7506 56.1629 58.7495 56.5626C50.381 59.8822 42.0389 63.2741 33.6478 66.5214C26.6243 69.2395 19.5403 71.8015 12.4828 74.4244C8.36849 75.9548 4.24658 77.4737 0.128455 79.0002C0.0868963 78.9241 0.0453372 78.8518 0.0075562 78.7756L0 78.7794ZM77.2092 59.8822C77.2319 59.4672 77.2621 59.1703 77.2621 58.8734C77.2621 42.1422 77.2621 25.411 77.2621 8.67988C77.2621 8.5771 77.2999 8.44767 77.2546 8.37534C77.0657 8.08221 76.9108 7.65584 76.635 7.54163C73.008 6.01889 69.3659 4.5266 65.7163 3.05715C64.2239 2.45566 62.7089 1.91509 61.1297 1.31741V53.3496C66.4606 55.5157 71.7877 57.678 77.2092 59.8784V59.8822ZM98.0946 68.638V67.435C98.0946 54.5069 98.0946 41.5788 98.0946 28.6469C98.0946 26.3818 98.087 24.1205 98.1021 21.8554C98.1021 21.3225 97.985 21.0484 97.3994 20.8352C95.4915 20.1347 93.6326 19.301 91.7474 18.5359C90.1455 17.8849 88.5322 17.2606 86.8358 16.5905V17.942C86.8358 32.7583 86.851 47.5708 86.8056 62.3871C86.8018 63.571 87.0852 64.1992 88.2451 64.458C88.8194 64.5875 89.3445 64.9377 89.8961 65.1699C92.5937 66.312 95.295 67.4502 98.0984 68.6304L98.0946 68.638ZM114.314 75.6997C114.363 75.2924 114.427 75.0068 114.427 74.7213C114.431 61.2869 114.427 47.8563 114.45 34.4219C114.45 33.7861 114.201 33.4816 113.683 33.276C112.013 32.6098 110.343 31.936 108.669 31.2774C107.634 30.8701 106.588 30.4932 105.42 30.0554V31.4792C105.42 44.0913 105.458 56.6996 105.379 69.308C105.367 71.0744 105.639 72.1479 107.491 72.7608C109.784 73.5222 111.953 74.6566 114.318 75.6921L114.314 75.6997ZM35.8277 16.522V63.2627C37.9283 62.3985 39.9156 61.5648 41.9142 60.7654C42.5679 60.5065 42.7643 60.1106 42.7605 59.3987C42.7341 49.9044 42.7416 40.4101 42.7416 30.9196C42.7416 27.3221 42.753 23.7208 42.7228 20.1233C42.7228 19.7921 42.5225 19.2706 42.2769 19.164C40.1763 18.2541 38.0417 17.4166 35.8239 16.522H35.8277ZM17.247 30.1087V71.1809C18.6978 70.5376 20.0353 69.8409 21.4445 69.3613C22.1888 69.1062 22.3323 68.7674 22.3323 68.0707C22.3135 57.1298 22.321 46.1927 22.3172 35.2518C22.3172 34.2239 22.6497 32.9562 22.1737 32.2367C21.6901 31.5058 20.4017 31.3155 19.461 30.8967C19.0341 30.7064 18.5996 30.5237 18.1613 30.3638C17.8893 30.2648 17.6022 30.2077 17.2432 30.1087H17.247Z" fill="#1375BA"/>
<path d="M152.023 54.4648C148.861 54.4648 146.231 53.3989 144.135 51.267C142.06 49.1542 141.021 46.5275 141.021 43.3792C141.021 40.2309 142.06 37.5813 144.135 35.4914C146.231 33.3595 148.861 32.2936 152.023 32.2936C153.939 32.2936 155.707 32.7466 157.328 33.6489C158.949 34.5511 160.214 35.7769 161.121 37.3187L157.524 39.4201C156.999 38.4645 156.255 37.7184 155.288 37.1816C154.32 36.6449 153.232 36.3746 152.023 36.3746C149.968 36.3746 148.306 37.0255 147.036 38.3237C145.786 39.6447 145.162 41.3273 145.162 43.3792C145.162 45.4311 145.786 47.0833 147.036 48.4042C148.306 49.7024 149.968 50.3534 152.023 50.3534C153.232 50.3534 154.324 50.0831 155.303 49.5463C156.281 49.0095 157.022 48.271 157.524 47.3383L161.121 49.4397C160.214 50.9815 158.949 52.2073 157.328 53.1095C155.707 54.0118 153.939 54.4648 152.023 54.4648Z" fill="white"/>
<path d="M162.028 32.72H177.594V36.74H171.881V54.0384H167.71V36.74H162.028V32.72Z" fill="white"/>
<path d="M179.921 32.72H187.81C189.823 32.72 191.539 33.409 192.948 34.7909C194.338 36.1728 195.033 37.8669 195.033 39.8769C195.033 41.8869 194.338 43.581 192.948 44.9628C191.539 46.3447 189.823 47.0338 187.81 47.0338H184.092V54.0384H179.921V32.72ZM184.092 43.1051H187.81C188.697 43.1051 189.43 42.7967 190.016 42.1762C190.602 41.5557 190.893 40.7905 190.893 39.8769C190.893 38.9632 190.602 38.1714 190.016 37.5623C189.43 36.9532 188.697 36.6487 187.81 36.6487H184.092V43.1051Z" fill="white"/>
<path d="M215.405 51.267C213.27 53.3989 210.671 54.4648 207.607 54.4648C204.543 54.4648 201.943 53.3989 199.809 51.267C197.693 49.0933 196.635 46.4666 196.635 43.3792C196.635 40.2918 197.693 37.6537 199.809 35.5218C201.943 33.3709 204.543 32.2936 207.607 32.2936C210.671 32.2936 213.27 33.3709 215.405 35.5218C217.539 37.6537 218.609 40.2728 218.609 43.3792C218.609 46.4856 217.539 49.1161 215.405 51.267ZM202.741 48.4042C204.029 49.7024 205.654 50.3534 207.607 50.3534C209.56 50.3534 211.185 49.7024 212.473 48.4042C213.784 47.0833 214.438 45.4082 214.438 43.3792C214.438 41.3501 213.784 39.6751 212.473 38.3541C211.162 37.0332 209.541 36.3746 207.607 36.3746C205.672 36.3746 204.052 37.0332 202.741 38.3541C201.43 39.6751 200.776 41.3501 200.776 43.3792C200.776 45.4082 201.43 47.0833 202.741 48.4042Z" fill="white"/>
<path d="M237.953 54.0384H233.782V41.0342L224.714 54.0384H221.541V32.72H225.712V45.7547L234.779 32.72H237.953V54.0384ZM234.114 30.7709H225.349V27.3599H234.114V30.7709Z" fill="white"/>
<path d="M253.216 46.7292H241.882V42.9528H253.216V46.7292Z" fill="white"/>
<path d="M267.18 54.4648C264.017 54.4648 261.388 53.3989 259.291 51.267C257.217 49.1542 256.178 46.5275 256.178 43.3792C256.178 40.2309 257.217 37.5813 259.291 35.4914C261.388 33.3595 264.017 32.2936 267.18 32.2936C269.095 32.2936 270.863 32.7466 272.484 33.6489C274.105 34.5511 275.37 35.7769 276.277 37.3187L272.68 39.4201C272.155 38.4645 271.411 37.7184 270.444 37.1816C269.477 36.6449 268.389 36.3746 267.18 36.3746C265.124 36.3746 263.462 37.0255 262.192 38.3237C260.942 39.6447 260.319 41.3273 260.319 43.3792C260.319 45.4311 260.942 47.0833 262.192 48.4042C263.462 49.7024 265.124 50.3534 267.18 50.3534C268.389 50.3534 269.48 50.0831 270.459 49.5463C271.437 49.0095 272.178 48.271 272.68 47.3383L276.277 49.4397C275.37 50.9815 274.105 52.2073 272.484 53.1095C270.863 54.0118 269.095 54.4648 267.18 54.4648Z" fill="white"/>
<path d="M277.184 32.72H292.75V36.74H287.037V54.0384H282.866V36.74H277.184V32.72Z" fill="white"/>
<path d="M311.67 54.0384H307.137L305.867 50.2011H297.435L296.165 54.0384H291.662L299.067 32.72H304.235L311.67 54.0384ZM301.666 37.5623L298.764 46.2724H304.568L301.666 37.5623Z" fill="white"/>
<path d="M325.574 52.0284V54.4952H321.494V52.0284C318.532 51.7238 316.186 50.8216 314.451 49.3179C312.717 47.7952 311.852 45.8156 311.852 43.3792C311.852 40.9428 312.717 38.9747 314.451 37.4709C316.163 35.9482 318.513 35.0345 321.494 34.73V32.2632H325.574V34.73C328.495 34.9927 330.845 35.8987 332.616 37.4405C334.37 38.9632 335.246 40.9428 335.246 43.3792C335.246 45.8156 334.37 47.7952 332.616 49.3179C330.845 50.8597 328.495 51.7657 325.574 52.0284ZM315.993 43.3792C315.993 46.162 317.825 47.7533 321.494 48.1606V38.5673C317.825 38.9746 315.993 40.5773 315.993 43.3792ZM325.574 38.5369V48.1911C329.243 47.7647 331.075 46.162 331.075 43.3792C331.075 40.5964 329.243 38.9632 325.574 38.5369Z" fill="white"/>
<path d="M350.328 52.0284V54.4952H346.248V52.0284C343.286 51.7238 340.939 50.8216 339.205 49.3179C337.471 47.7952 336.606 45.8156 336.606 43.3792C336.606 40.9428 337.471 38.9747 339.205 37.4709C340.917 35.9482 343.267 35.0345 346.248 34.73V32.2632H350.328V34.73C353.248 34.9927 355.598 35.8987 357.37 37.4405C359.123 38.9632 360 40.9428 360 43.3792C360 45.8156 359.123 47.7952 357.37 49.3179C355.598 50.8597 353.248 51.7657 350.328 52.0284ZM340.747 43.3792C340.747 46.162 342.579 47.7533 346.248 48.1606V38.5673C342.579 38.9746 340.747 40.5773 340.747 43.3792ZM350.328 38.5369V48.1911C353.997 47.7647 355.829 46.162 355.829 43.3792C355.829 40.5964 353.997 38.9632 350.328 38.5369Z" fill="white"/>
</svg>
