<svg width="0" height="0" class="hidden">
  <symbol fill="none" xmlns="http://www.w3.org/2000/svg" viewBox="0 0 30 30" id="ic_arrow_hor">
    <path d="M6.82375 16.3825L12.72 22.2787L13.6038 21.395L7.83375 15.6237L23.75 15.6237L23.75 14.3737L7.83125 14.3737L13.6038 8.6025L12.72 7.71874L6.82375 13.6137C6.45375 13.9837 6.25 14.4762 6.25 14.9987C6.25 15.5212 6.45375 16.0137 6.82375 16.3812L6.82375 16.3825Z" fill="currentColor"></path>
  </symbol>
  <symbol fill="none" xmlns="http://www.w3.org/2000/svg" viewBox="0 0 21 21" id="ic_close">
    <rect x="2.63916" y="0.176758" width="24.8826" height="3.73239" transform="rotate(45 2.63916 0.176758)" fill="currentColor"></rect>
    <rect x="0.150879" y="17.5947" width="24.8826" height="3.73239" transform="rotate(-45 0.150879 17.5947)" fill="currentColor"></rect>
  </symbol>
  <symbol fill="none" xmlns="http://www.w3.org/2000/svg" viewBox="0 0 20 13" id="ic_menu">
    <rect width="20" height="3" fill="currentColor"></rect>
    <rect y="5" width="20" height="3" fill="currentColor"></rect>
    <rect y="10" width="20" height="3" fill="currentColor"></rect>
  </symbol>
  <symbol fill="none" xmlns="http://www.w3.org/2000/svg" viewBox="0 0 25 25" id="ic_telegram">
    <path d="M9.80956 15.8135L9.39602 21.6302C9.98769 21.6302 10.2439 21.376 10.5512 21.0708L13.3252 18.4198L19.0731 22.6292C20.1273 23.2167 20.87 22.9073 21.1544 21.6594L24.9273 3.98021L24.9283 3.97916C25.2627 2.42083 24.3648 1.81146 23.3377 2.19375L1.1606 10.6844C-0.35294 11.2719 -0.330023 12.1156 0.90331 12.4979L6.5731 14.2615L19.7429 6.02083C20.3627 5.61041 20.9262 5.8375 20.4627 6.24791L9.80956 15.8135Z" fill="currentColor"></path>
  </symbol>
  <symbol fill="none" xmlns="http://www.w3.org/2000/svg" viewBox="0 0 25 25" id="ic_whatsapp">
    <path d="M12.5031 0H12.4969C5.60469 0 0 5.60625 0 12.5C0 15.2344 0.88125 17.7687 2.37969 19.8266L0.821875 24.4703L5.62656 22.9344C7.60313 24.2438 9.96094 25 12.5031 25C19.3953 25 25 19.3922 25 12.5C25 5.60781 19.3953 0 12.5031 0ZM19.7766 17.6516C19.475 18.5031 18.2781 19.2094 17.3234 19.4156C16.6703 19.5547 15.8172 19.6656 12.9453 18.475C9.27187 16.9531 6.90625 13.2203 6.72188 12.9781C6.54531 12.7359 5.2375 11.0016 5.2375 9.20781C5.2375 7.41406 6.14844 6.54063 6.51562 6.16563C6.81719 5.85781 7.31562 5.71719 7.79375 5.71719C7.94844 5.71719 8.0875 5.725 8.2125 5.73125C8.57969 5.74687 8.76406 5.76875 9.00625 6.34844C9.30781 7.075 10.0422 8.86875 10.1297 9.05313C10.2188 9.2375 10.3078 9.4875 10.1828 9.72969C10.0656 9.97969 9.9625 10.0906 9.77812 10.3031C9.59375 10.5156 9.41875 10.6781 9.23438 10.9062C9.06563 11.1047 8.875 11.3172 9.0875 11.6844C9.3 12.0437 10.0344 13.2422 11.1156 14.2047C12.5109 15.4469 13.6422 15.8438 14.0469 16.0125C14.3484 16.1375 14.7078 16.1078 14.9281 15.8734C15.2078 15.5719 15.5531 15.0719 15.9047 14.5797C16.1547 14.2266 16.4703 14.1828 16.8016 14.3078C17.1391 14.425 18.925 15.3078 19.2922 15.4906C19.6594 15.675 19.9016 15.7625 19.9906 15.9172C20.0781 16.0719 20.0781 16.7984 19.7766 17.6516Z" fill="currentColor"></path>
  </symbol>
  <symbol fill="none" xmlns="http://www.w3.org/2000/svg" viewBox="0 0 16 16" id="ic_wolk">
    <path fill-rule="evenodd" clip-rule="evenodd" d="M11.4918 7.686C11.6638 7.823 11.6928 8.075 11.5578 8.248C11.4947 8.32905 11.4025 8.38233 11.3008 8.39651C11.199 8.4107 11.0957 8.38469 11.0128 8.324L9.66285 7.336L9.69585 7.145L9.75885 6.777L9.77485 6.682L9.78585 6.529L9.80185 6.335L9.81585 6.169L11.4918 7.686ZM10.3398 10.233L11.2278 13.389C11.2628 13.511 11.248 13.6419 11.1867 13.753C11.1255 13.8641 11.0227 13.9465 10.9008 13.982C10.785 14.0143 10.6611 14.0016 10.5542 13.9463C10.4474 13.891 10.3654 13.7973 10.3248 13.684L9.26385 10.742L7.47885 8.937C7.40019 8.85631 7.34227 8.75775 7.31005 8.64977C7.27783 8.54179 7.27227 8.4276 7.29385 8.317L7.67485 6.123L6.81685 6.38L6.06185 8.156C6.04185 8.20424 6.01248 8.24804 5.97545 8.28486C5.93841 8.32168 5.89444 8.35079 5.84608 8.3705C5.79773 8.39022 5.74594 8.40015 5.69372 8.39972C5.64149 8.39929 5.58988 8.38851 5.54185 8.368C5.44715 8.32708 5.3718 8.25131 5.33141 8.15637C5.29102 8.06144 5.28867 7.95462 5.32485 7.858L6.08785 5.853C6.12345 5.75754 6.19333 5.67875 6.28385 5.632L6.33185 5.607L8.24085 4.622L8.26285 4.612C8.37892 4.54909 8.51329 4.52858 8.64285 4.554C8.81385 4.587 8.96185 4.686 9.03385 4.836C9.10685 4.987 9.13185 5.264 9.13185 5.264C9.17385 5.511 9.17585 5.752 9.19685 5.995C9.21185 6.238 9.21085 6.478 9.20585 6.718C9.19285 7.197 9.16185 7.673 9.09885 8.145L9.06385 8.424L10.2268 10.028L10.2708 10.088C10.3027 10.1317 10.3255 10.1808 10.3398 10.233ZM10.0568 3C10.0568 3.552 9.61385 4 9.06685 4C8.93601 3.99961 8.80654 3.97342 8.68584 3.92292C8.56514 3.87243 8.45559 3.79863 8.36344 3.70574C8.2713 3.61286 8.19838 3.50271 8.14886 3.38161C8.09934 3.26051 8.07419 3.13083 8.07485 3C8.07485 2.448 8.51885 2 9.06585 2C9.61385 2 10.0568 2.448 10.0568 3ZM7.73385 10.005C7.96985 10.223 8.21085 10.432 8.42185 10.602L8.18185 11.109L6.57185 13.77C6.5397 13.8238 6.4972 13.8706 6.44681 13.9078C6.39641 13.945 6.33914 13.9718 6.27829 13.9867C6.21745 14.0016 6.15426 14.0042 6.09238 13.9945C6.03051 13.9848 5.97118 13.9628 5.91785 13.93C5.81569 13.8659 5.74107 13.7661 5.70853 13.65C5.67599 13.5339 5.68787 13.4098 5.74185 13.302L7.08385 10.641C7.10585 10.429 7.12385 10.217 7.15185 10.006L7.22185 9.516L7.30685 9.599C7.43885 9.733 7.58685 9.869 7.73385 10.005Z" fill="currentColor"></path>
  </symbol>
</svg>